HIERARCHY
ROOT Hips
{
	OFFSET 0.00000 0.00000 0.00000
	CHANNELS 6 Xposition Yposition Zposition Yrotation Zrotation Xrotation 
	JOINT Lumbar
	{
		OFFSET 0 0 0
		CHANNELS 3 Zrotation Xrotation Yrotation
		JOINT Neck
		{
			OFFSET 0.00 0.2701 0.00
			CHANNELS 3 Zrotation Xrotation Yrotation
			End Site
			{
				OFFSET 0.00 0.1379 0.00
			}
		}
		JOINT RightShoulder
		{
			OFFSET 0.0119 0.2289 0.1181
			CHANNELS 3 Zrotation Xrotation Yrotation
			JOINT RightElbow
			{
				OFFSET 0.00 -0.1475 0.00
				CHANNELS 2 Zrotation Yrotation
				JOINT RightWrist
				{
					OFFSET 0.00 -0.1605 0.00
					CHANNELS 2 Zrotation Xrotation
					End Site
					{
						OFFSET 0.0040 -0.1068 0.0006
					}
				}
			}
		}
		JOINT LeftShoulder
		{
			OFFSET 0.0119 0.2289 -0.1181
			CHANNELS 3 Zrotation Xrotation Yrotation
			JOINT LeftElbow
			{
				OFFSET 0.00 -0.1475 0.00
				CHANNELS 2 Zrotation Yrotation
				JOINT LeftWrist
				{
					OFFSET 0.00 -0.1605 0.00
					CHANNELS 2 Zrotation Xrotation
					End Site
					{
						OFFSET 0.0040 -0.1068 -0.0006
					}
				}
			}
		}
	}
	JOINT RightHip
	{
		OFFSET 0.0316 -0.0424 0.0458
		CHANNELS 3 Zrotation Xrotation Yrotation
		JOINT RightKnee
		{
			OFFSET 0.00 -0.2438 0.00
			CHANNELS 1 Zrotation
			JOINT RightAnkle
			{
				OFFSET 0.00 -0.2449 0.00
				CHANNELS 3 Zrotation Xrotation Yrotation
				End Site
				{
					OFFSET 0.1237 -0.0542 0.0051
				}
			}
		}
	}
	JOINT LeftHip
	{
		OFFSET 0.0316 -0.0424 -0.0458
		CHANNELS 3 Zrotation Xrotation Yrotation
		JOINT LeftKnee
		{
			OFFSET 0.00 -0.2438 0.00
			CHANNELS 1 Zrotation
			JOINT LeftAnkle
			{
				OFFSET 0.00 -0.2449 0.00
				CHANNELS 3 Zrotation Xrotation Yrotation
				End Site
				{
					OFFSET 0.1237 -0.0542 -0.0051
				}
			}
		}
	}
}
MOTION
Frames: 23
Frame Time: 0.02
0.00285 0.58857 -0.04106 214.07048 0 -1.86699 -20.71673 7.78831 -0.24691 39.86017 3.7696 -11.13342 76.19578 8.01977 55.15351 88.94651 101.89987 40.02818 -1.13145 46.55005 4.14321 -53.55548 105.92604 -63.44669 43.81101 4.78148 0.2847 7.81787 -3.70901 -4.06564 -4.45287 -2.38363 -5.57475 2.31346 0.09774 -12.95601 -8.36479 -0.19437 3.20697 7.30537
0.00256 0.5885 -0.04115 213.76684 0 -1.89283 -21.19441 7.66021 -0.1152 39.47696 3.90497 -11.26843 76.36352 8.35282 55.23238 90.041 101.68852 41.82378 -1.14686 48.2881 4.35855 -53.5779 106.99251 -62.72536 45.04519 4.83243 -0.09417 7.87032 -3.82247 -3.35314 -4.74462 -2.31689 -5.11302 1.95681 0.24757 -12.28971 -7.74703 -0.30662 3.12988 6.93671
0.00234 0.58839 -0.04132 213.48047 0 -1.89919 -21.63052 7.49209 -0.0072 39.16956 3.98475 -11.34601 76.33748 8.51086 55.19878 90.67018 101.53355 43.46461 -1.09115 49.98309 4.78031 -53.57242 107.6566 -62.86951 45.33445 4.79132 -0.41141 7.90351 -3.77481 -2.74045 -5.00732 -2.26574 -4.79509 1.65834 0.36156 -11.64557 -7.22884 -0.38762 3.05961 6.54869
0.0021 0.5883 -0.04146 213.19342 0 -1.91564 -22.07965 7.34735 0.1082 38.83125 4.07796 -11.43808 76.38667 8.73077 55.2104 91.49796 101.36163 45.10111 -1.06944 51.6611 5.10562 -53.57822 108.46344 -62.56795 46.03699 4.79909 -0.75207 7.94591 -3.70953 -2.08991 -5.28129 -2.19687 -4.50962 1.33571 0.48926 -11.05889 -6.67279 -0.48317 2.9927 6.23139
0.00183 0.58821 -0.04159 212.87413 0 -1.92979 -22.55249 7.18174 0.23936 38.46544 4.21911 -11.57536 76.49801 9.01432 55.24651 92.37182 101.14291 47.05373 -1.04202 53.5303 5.45299 -53.58827 109.41977 -62.45945 46.84361 4.7777 -1.11379 7.98908 -4.0139 -1.40383 -5.56627 -2.17017 -3.82202 1.00123 0.62725 -10.20339 -6.099 -0.56533 2.90548 5.67382
0.00164 0.5881 -0.04176 212.62696 0 -1.94291 -22.9655 7.0497 0.33185 38.17857 4.2484 -11.60688 76.43307 9.12671 55.20587 93.04077 101.03875 48.31056 -1.00871 54.97523 5.79974 -53.58338 109.97511 -62.16885 47.18897 4.79526 -1.4162 8.02493 -3.52783 -0.81751 -5.81986 -2.06196 -3.98958 0.70692 0.7356 -9.89419 -5.58253 -0.67091 2.85919 5.59157
0.00167 0.58796 -0.04205 212.57326 0 -1.95904 -23.2352 7.02014 0.31825 38.10529 3.97765 -11.35356 75.90153 8.82257 54.9705 93.27695 101.24053 47.68511 -0.9808 55.28106 6.09254 -53.54492 109.5414 -61.12384 46.56503 4.9395 -1.57192 8.04649 -0.74333 -0.47563 -5.99945 -1.70539 -6.6382 0.49891 0.7699 -11.24937 -5.17657 -0.86912 2.92848 6.98537
0.00177 0.5878 -0.04237 212.59193 0 -1.97424 -23.44395 7.02554 0.26694 38.10802 3.59774 -10.9978 75.20331 8.35028 54.66352 93.32082 101.55686 46.36374 -0.94832 55.15392 6.37919 -53.49225 108.7169 -59.88024 45.48953 5.12673 -1.66953 8.06077 2.8028 -0.23241 -6.1471 -1.27002 -10.1145 0.33128 0.7758 -13.12676 -4.82692 -1.09036 3.03715 8.8313
0.00183 0.58765 -0.04268 212.5789 0 -1.98873 -23.6736 7.01484 0.23631 38.06886 3.2706 -10.69354 74.59715 7.94956 54.39613 93.44161 101.81956 45.36101 -0.91523 55.2036 6.66451 -53.44604 108.0622 -58.75237 44.57144 5.29629 -1.79216 8.0772 5.89775 0.05123 -6.30537 -0.88361 -13.11023 0.15236 0.79556 -14.65446 -4.46471 -1.28947 3.12386 10.36038
0.00192 0.58749 -0.04301 212.56209 0 -2.00726 -23.93171 7.00386 0.19111 38.06378 2.92647 -10.3652 73.91366 7.56797 54.0955 93.59026 102.08921 44.34576 -0.89171 55.33002 6.9628 -53.39973 107.4283 -57.5315 43.83174 5.45439 -1.91835 8.09783 9.4393 0.35018 -6.47906 -0.4422 -16.54993 -0.0537 0.81038 -16.64266 -4.05159 -1.53565 3.22742 12.3438
0.00196 0.58735 -0.0433 212.5693 0 -2.01756 -24.11506 7.00206 0.16614 38.00399 2.59465 -10.06489 73.35651 7.10264 53.84805 93.64124 102.37272 43.18971 -0.84723 55.20248 7.24477 -53.34949 106.6607 -56.46503 42.61413 5.64827 -2.02433 8.10831 12.23259 0.59496 -6.61347 -0.09644 -19.26193 -0.19523 0.82879 -17.81388 -3.7561 -1.69077 3.30593 13.50769
0.00191 0.58728 -0.04351 212.63186 0 -2.00389 -24.1196 7.0191 0.21863 37.78119 2.30592 -9.8551 73.16818 6.49961 53.76963 93.47349 102.65073 41.8449 -0.75307 54.40424 7.35661 -53.29931 105.64942 -55.70391 40.28671 5.92381 -2.08666 8.0918 12.74037 0.7148 -6.64608 -0.03448 -19.73638 -0.16161 0.86798 -16.4398 -3.77453 -1.58008 3.29824 12.13016
0.00181 0.58724 -0.04368 212.71461 0 -1.98232 -24.04839 7.04404 0.2905 37.49873 2.03696 -9.67957 73.11683 5.80751 53.74684 93.21628 102.94111 40.37645 -0.63652 53.3774 7.47629 -53.24269 104.51546 -55.12974 37.47993 6.23365 -2.13109 8.06556 12.47108 0.78317 -6.64009 -0.07157 -19.4508 -0.06607 0.91123 -14.25361 -3.90848 -1.37855 3.26518 9.9418
0.00171 0.58719 -0.04386 212.78376 0 -1.96546 -24.00436 7.06414 0.34555 37.23932 1.77077 -9.49652 73.01827 5.12499 53.69614 92.99921 103.23635 38.9474 -0.52658 52.50746 7.67247 -53.18649 103.4178 -54.5803 34.83226 6.53504 -2.1857 8.04438 12.58226 0.87626 -6.65334 -0.06271 -19.5333 -0.00358 0.95019 -12.54755 -3.98689 -1.22484 3.24867 8.23716
0.00169 0.58714 -0.04409 212.87469 0 -1.94388 -23.99072 7.0905 0.43339 37.0013 1.45101 -9.27596 72.85326 4.57411 53.65417 92.77514 103.49273 37.56976 -0.43353 51.40737 7.52451 -53.14751 102.38067 -53.5724 32.41661 6.81568 -2.23063 8.02025 12.61741 0.96341 -6.66043 -0.05418 -19.56211 0.08133 0.99839 -10.39887 -4.07951 -1.04532 3.21287 6.06951
0.0015 0.5871 -0.04421 212.9234 0 -1.93019 -23.89414 7.10552 0.45769 36.70166 1.24911 -9.14292 72.85765 3.72108 53.60793 92.54965 103.82979 36.05861 -0.29748 50.72699 8.10286 -53.06239 101.20314 -53.55245 29.40935 7.13719 -2.29095 8.00005 12.60055 1.04803 -6.66894 -0.07059 -19.49503 0.1334 1.0288 -8.96239 -4.17008 -0.89644 3.21005 4.65812
0.00092 0.58709 -0.04409 212.85639 0 -1.94095 -23.60819 7.08502 0.30526 36.26218 1.36714 -9.24456 73.32709 2.13363 53.53838 92.3224 104.38442 34.25764 -0.07267 51.34905 10.61209 -52.91578 99.58999 -56.33542 24.8954 7.65094 -2.41038 7.99314 12.76737 1.17409 -6.71442 -0.1225 -19.49033 0.08205 1.00813 -9.77397 -4.21943 -0.86477 3.30974 5.61332
0.00018 0.5871 -0.04386 212.74477 0 -1.95979 -23.23775 7.05323 0.08806 35.75948 1.60373 -9.43329 73.9558 0.23159 53.46225 92.10265 105.0084 32.31601 0.19749 52.38081 13.85988 -52.7027 97.85801 -60.08544 19.80511 8.19004 -2.54446 7.99047 12.88291 1.29407 -6.75882 -0.19794 -19.38848 -0.00507 0.96972 -11.31149 -4.26407 -0.86483 3.44229 7.33957
-0.00052 0.58711 -0.04366 212.64936 0 -1.97446 -22.89249 7.02774 -0.10192 35.275 1.78714 -9.58185 74.49429 -1.57693 53.38857 91.89194 105.61576 30.41676 0.46508 53.17794 16.82452 -52.48848 96.23144 -63.31344 14.97223 8.65722 -2.66346 7.98597 12.92339 1.39275 -6.78789 -0.2693 -19.2296 -0.07771 0.94023 -12.46074 -4.31505 -0.84375 3.5562 8.65918
-0.00109 0.5871 -0.04356 212.57173 0 -1.99097 -22.60043 6.997 -0.28309 34.8327 1.96847 -9.73434 75.11932 -3.18041 53.32048 91.62069 106.20693 28.62419 0.66425 54.19768 19.59126 -52.44049 94.37643 -66.89276 10.13333 9.3724 -2.81523 7.98103 13.33727 1.58761 -6.88075 -0.31715 -19.45675 -0.14098 0.90733 -13.83151 -4.35135 -0.84879 3.68499 10.1916
-0.00198 0.58713 -0.04321 212.44639 0 -2.00564 -22.17836 6.97517 -0.49674 34.28848 2.18173 -9.8985 75.59193 -5.28387 53.23669 91.48444 106.79018 26.55204 1.00768 54.82104 22.91611 -51.9878 92.97925 -69.97204 5.18647 9.58693 -2.9051 7.97774 12.99041 1.58585 -6.84304 -0.41698 -18.88559 -0.23268 0.87718 -14.91985 -4.41689 -0.807 3.79078 11.47012
-0.00373 0.58729 -0.04223 212.19824 0 -2.01366 -21.41964 6.9743 -0.79744 33.47698 2.45804 -10.07743 75.67084 -8.69207 53.1202 91.66926 107.85156 23.97309 1.81388 54.53885 27.8498 -50.80733 92.80227 -71.39925 -0.00228 8.32347 -2.79828 7.98144 10.39586 1.00506 -6.42792 -0.66577 -15.97491 -0.39801 0.8597 -15.08892 -4.55245 -0.63815 3.8267 11.90026
-0.00582 0.58749 -0.04101 211.90373 0 -2.01964 -20.53331 6.98406 -1.12641 32.56583 2.76225 -10.26441 75.57528 -12.58903 52.98192 91.99937 108.8209 21.08212 2.75005 53.79444 33.27074 -49.15777 93.10345 -72.29846 -5.26234 6.5716 -2.63304 7.9861 7.07293 0.23422 -5.88507 -0.96368 -12.29921 -0.5904 0.84548 -14.94669 -4.71908 -0.41967 3.83839 12.04586
